<!DOCTYPE svg PUBLIC "-//W3C//DTD SVG 20010904//EN" "http://www.w3.org/TR/2001/REC-SVG-20010904/DTD/svg10.dtd">
<svg version="1.0" xmlns="http://www.w3.org/2000/svg" width="256px" height="195px" viewBox="0 0 2560 1950" preserveAspectRatio="xMidYMid meet">
<g id="layer101" fill="#28abfb" stroke="none">
 <path d="M494 1801 c-65 -40 -64 -31 -64 -402 0 -332 0 -336 23 -369 52 -77 131 -99 211 -61 79 39 90 70 94 249 4 163 -1 182 -42 182 -42 0 -46 -16 -46 -170 0 -143 -1 -147 -25 -170 -35 -33 -81 -31 -112 4 l-23 27 0 308 c0 335 -2 324 57 340 18 5 29 15 31 30 8 50 -47 67 -104 32z"/>
 <path d="M755 1810 c-39 -12 -84 -55 -101 -96 -9 -22 -14 -72 -14 -142 0 -118 7 -137 52 -130 22 3 23 7 28 120 5 106 7 119 29 142 36 39 100 35 124 -8 7 -11 14 -73 17 -136 l5 -115 35 0 35 0 0 135 c0 125 -2 137 -23 168 -40 55 -121 82 -187 62z"/>
 <path d="M1052 1808 c-23 -23 -11 -54 69 -168 l80 -115 -58 -3 c-96 -4 -105 -8 -101 -45 l3 -32 129 -3 c128 -3 156 3 156 33 0 7 -38 67 -84 134 l-85 121 69 0 c70 0 100 14 100 45 0 36 -29 45 -149 45 -78 0 -121 -4 -129 -12z"/>
 <path d="M943 1399 c-44 -13 -101 -71 -108 -111 -3 -18 -5 -82 -3 -143 l3 -110 35 0 35 0 5 115 c3 63 9 123 14 133 21 44 90 50 127 11 22 -23 24 -36 29 -142 5 -113 6 -117 28 -120 45 -7 52 12 52 131 0 92 -4 118 -21 153 -34 71 -119 107 -196 83z"/>
 <path d="M1360 1401 c-91 -29 -140 -92 -140 -179 0 -87 29 -136 104 -174 56 -29 141 -22 190 15 42 33 59 61 52 85 -4 10 -56 46 -116 81 -91 52 -109 65 -99 77 24 29 128 7 142 -31 7 -18 48 -20 65 -3 19 19 14 41 -13 71 -47 50 -129 76 -185 58z m54 -247 l49 -28 -27 -9 c-15 -5 -38 -6 -53 -2 -34 8 -83 58 -83 85 l0 22 33 -20 c17 -11 54 -32 81 -48z"/>
 <path d="M1743 1402 c-13 -8 -143 -313 -143 -335 0 -18 21 -37 40 -37 26 0 44 27 80 120 18 47 36 89 40 93 4 4 27 -41 52 -100 42 -101 46 -108 73 -108 55 0 53 21 -15 186 -76 185 -90 205 -127 181z"/>
 <path d="M2086 1396 c-115 -42 -160 -184 -92 -287 45 -68 152 -98 231 -65 29 12 34 12 39 0 7 -17 48 -18 64 -2 8 8 12 63 12 180 l0 168 -25 12 c-20 9 -28 8 -44 -6 -14 -13 -24 -15 -38 -8 -34 19 -107 22 -147 8z m127 -96 c39 -31 52 -81 32 -123 -17 -36 -61 -67 -95 -67 -34 0 -78 31 -95 67 -32 66 20 143 95 143 22 0 48 -8 63 -20z"/>
 <path d="M188 959 c-113 -115 -158 -232 -158 -404 0 -77 6 -115 23 -166 66 -194 221 -332 420 -373 95 -20 129 -20 224 0 114 23 196 67 279 149 114 112 167 238 167 400 0 156 -52 282 -161 394 -73 75 -96 75 -28 0 177 -197 165 -492 -28 -677 -198 -191 -484 -191 -682 0 -192 184 -204 481 -28 677 68 75 45 75 -28 0z"/>
 <path d="M496 875 c-58 -76 -71 -167 -41 -289 17 -67 101 -245 137 -289 l23 -28 1 63 c1 51 11 89 55 198 64 161 69 214 27 295 -25 48 -63 93 -72 84 -2 -2 0 -29 6 -59 11 -61 6 -147 -12 -179 -6 -12 -21 -21 -34 -21 -38 0 -51 40 -51 157 0 56 -3 103 -6 103 -4 0 -19 -16 -33 -35z"/>
 </g>

</svg>